<?xml version="1.0" encoding="UTF-8"?>
<svg id="Layer_1" xmlns="http://www.w3.org/2000/svg" version="1.1" viewBox="0 0 612 792">
  <!-- Generator: Adobe Illustrator 29.2.1, SVG Export Plug-In . SVG Version: 2.1.0 Build 116)  -->
  <defs>
    <style>
      .st0 {
        fill: #fff;
      }

      .st1 {
        fill: #929497;
      }

      .st2 {
        fill: #6cc396;
      }
    </style>
  </defs>
  <path class="st1" d="M561.08,337.16H51.46c-9.78,0-17.74,7.96-17.74,17.74v130.15c0,9.78,7.96,17.74,17.74,17.74h509.62c9.78,0,17.74-7.96,17.74-17.74v-130.15c0-9.78-7.96-17.74-17.74-17.74ZM564.45,354.9v130.15c0,1.86-1.51,3.37-3.37,3.37H51.46c-1.86,0-3.37-1.51-3.37-3.37v-130.15c0-1.86,1.51-3.37,3.37-3.37h509.62c1.86,0,3.37,1.51,3.37,3.37Z"/>
  <g>
    <path class="st0" d="M164.58,455.08c0,16.74-4.85,29.71-14.54,38.9-9.69,9.19-23.74,13.79-42.12,13.79-12.16,0-21.8-1.73-28.9-5.2v-23.44c9.28,5.4,18.65,8.11,28.11,8.11s16.68-2.48,21.85-7.45,7.75-11.71,7.75-20.22v-7.14h-.35c-6.35,10.11-15.72,15.16-28.11,15.16-11.51,0-20.65-4.05-27.4-12.16-6.76-8.11-10.13-18.97-10.13-32.6,0-15.27,3.76-27.41,11.28-36.39,7.52-8.99,17.42-13.48,29.7-13.48,10.99,0,19.21,4.23,24.67,12.69h.35v-10.49h27.85v79.92ZM137.09,422.04v-7.14c0-5.7-1.69-10.56-5.07-14.58-3.38-4.02-7.77-6.04-13.17-6.04-6.17,0-11.02,2.41-14.54,7.23-3.53,4.82-5.29,11.6-5.29,20.36,0,7.52,1.67,13.47,5.02,17.84,3.35,4.38,7.93,6.57,13.75,6.57s10.41-2.22,13.97-6.65c3.55-4.44,5.33-10.3,5.33-17.58Z"/>
    <path class="st0" d="M266.65,465.39h-27.76v-13.75h-.44c-6.87,10.63-16.07,15.95-27.58,15.95-20.91,0-31.37-12.66-31.37-37.98v-54.46h27.76v51.99c0,12.75,5.05,19.12,15.16,19.12,4.99,0,8.99-1.75,11.98-5.24,3-3.49,4.49-8.24,4.49-14.23v-51.64h27.76v90.23Z"/>
    <path class="st0" d="M424.13,465.39h-27.76v-51.46c0-13.1-4.82-19.65-14.45-19.65-4.58,0-8.31,1.97-11.19,5.9-2.88,3.94-4.32,8.84-4.32,14.72v50.49h-27.85v-51.99c0-12.75-4.73-19.12-14.19-19.12-4.76,0-8.56,1.88-11.41,5.64-2.85,3.76-4.27,8.87-4.27,15.33v50.14h-27.85v-90.23h27.85v14.1h.35c2.88-4.82,6.92-8.74,12.12-11.76,5.2-3.03,10.88-4.54,17.05-4.54,12.75,0,21.47,5.61,26.17,16.83,6.87-11.22,16.98-16.83,30.31-16.83,19.62,0,29.43,12.1,29.43,36.3v56.13Z"/>
  </g>
  <path class="st2" d="M479.78,320.42h38.36v-18.28h-38.36c-9.54,0-18.17,3.97-24.34,10.34-6.16-6.37-14.79-10.34-24.34-10.34h-38.36v18.28h38.36c7.19,0,13.25,4.9,15.04,11.53-.16,1.34-.25,2.69-.25,4.07v166.31c0,1.38.09,2.73.25,4.07-1.8,6.63-7.85,11.53-15.04,11.53h-38.36v18.28h38.36c9.54,0,18.17-3.97,24.34-10.34,6.16,6.37,14.79,10.34,24.34,10.34h38.36v-18.28h-38.36c-7.19,0-13.25-4.9-15.04-11.53.16-1.34.25-2.69.25-4.07v-166.31c0-1.38-.09-2.73-.25-4.07,1.8-6.63,7.85-11.53,15.04-11.53Z"/>
</svg>