<svg width="32" height="32" viewBox="0 0 32 32" fill="none" xmlns="http://www.w3.org/2000/svg">
<rect x="4.5" y="4.5" width="23" height="23" rx="2.5" stroke="black" stroke-dasharray="2 2"/>
<rect x="4.5" y="7.5" width="14" height="17" rx="2.5" fill="black" fill-opacity="0.2" stroke="black"/>
<path d="M23 6L20.1132 11L25.8868 11L23 6ZM23 26L25.8868 21L20.1132 21L23 26ZM23 10.5L22.5 10.5L22.5 21.5L23 21.5L23.5 21.5L23.5 10.5L23 10.5Z" fill="black"/>
<path d="M12.4844 18.3636V17.9034C12.4844 17.554 12.5582 17.233 12.706 16.9403C12.8565 16.6449 13.0739 16.4091 13.358 16.233C13.6449 16.054 13.9943 15.9645 14.4062 15.9645C14.8239 15.9645 15.1747 16.0526 15.4588 16.2287C15.7457 16.4048 15.9616 16.6406 16.1065 16.9361C16.2543 17.2287 16.3281 17.5511 16.3281 17.9034V18.3636C16.3281 18.7131 16.2543 19.0355 16.1065 19.331C15.9588 19.6236 15.7415 19.858 15.4545 20.0341C15.1676 20.2131 14.8182 20.3026 14.4062 20.3026C13.9886 20.3026 13.6378 20.2131 13.3537 20.0341C13.0696 19.858 12.8537 19.6236 12.706 19.331C12.5582 19.0355 12.4844 18.7131 12.4844 18.3636ZM13.7244 17.9034V18.3636C13.7244 18.5653 13.7727 18.7557 13.8693 18.9347C13.9688 19.1136 14.1477 19.2031 14.4062 19.2031C14.6648 19.2031 14.8409 19.1151 14.9347 18.9389C15.0313 18.7628 15.0795 18.571 15.0795 18.3636V17.9034C15.0795 17.696 15.0341 17.5028 14.9432 17.3239C14.8523 17.1449 14.6733 17.0554 14.4062 17.0554C14.1506 17.0554 13.973 17.1449 13.8736 17.3239C13.7741 17.5028 13.7244 17.696 13.7244 17.9034ZM8.00568 13.3693V12.9091C8.00568 12.5568 8.08097 12.2344 8.23153 11.9418C8.3821 11.6463 8.59943 11.4105 8.88352 11.2344C9.17045 11.0582 9.51705 10.9702 9.9233 10.9702C10.3438 10.9702 10.696 11.0582 10.9801 11.2344C11.2642 11.4105 11.4801 11.6463 11.6278 11.9418C11.7756 12.2344 11.8494 12.5568 11.8494 12.9091V13.3693C11.8494 13.7216 11.7741 14.044 11.6236 14.3366C11.4759 14.6293 11.2585 14.8636 10.9716 15.0398C10.6875 15.2131 10.3381 15.2997 9.9233 15.2997C9.50852 15.2997 9.15767 15.2116 8.87074 15.0355C8.58665 14.8565 8.37074 14.6222 8.22301 14.3324C8.07813 14.0398 8.00568 13.7187 8.00568 13.3693ZM9.25426 12.9091V13.3693C9.25426 13.5767 9.30256 13.7685 9.39915 13.9446C9.49858 14.1207 9.6733 14.2088 9.9233 14.2088C10.1847 14.2088 10.3622 14.1207 10.456 13.9446C10.5526 13.7685 10.6009 13.5767 10.6009 13.3693V12.9091C10.6009 12.7017 10.5554 12.5085 10.4645 12.3295C10.3736 12.1506 10.1932 12.0611 9.9233 12.0611C9.67045 12.0611 9.49574 12.152 9.39915 12.3338C9.30256 12.5156 9.25426 12.7074 9.25426 12.9091ZM8.56818 20L14.5682 11.2727H15.6847L9.68466 20H8.56818Z" fill="black"/>
</svg>
