<svg width="32" height="32" viewBox="0 0 32 32" fill="none" xmlns="http://www.w3.org/2000/svg">
<rect x="4.5" y="4.5" width="23" height="23" rx="2.5" stroke="black" stroke-dasharray="2 2"/>
<path d="M10 6L7.11325 11L12.8868 11L10 6ZM10 26L12.8868 21L7.11325 21L10 26ZM10 10.5L9.5 10.5L9.5 21.5L10 21.5L10.5 21.5L10.5 10.5L10 10.5Z" fill="black"/>
<path d="M20.4844 18.3636V17.9034C20.4844 17.554 20.5582 17.233 20.706 16.9403C20.8565 16.6449 21.0739 16.4091 21.358 16.233C21.6449 16.054 21.9943 15.9645 22.4062 15.9645C22.8239 15.9645 23.1747 16.0526 23.4588 16.2287C23.7457 16.4048 23.9616 16.6406 24.1065 16.9361C24.2543 17.2287 24.3281 17.5511 24.3281 17.9034V18.3636C24.3281 18.7131 24.2543 19.0355 24.1065 19.331C23.9588 19.6236 23.7415 19.858 23.4545 20.0341C23.1676 20.2131 22.8182 20.3026 22.4062 20.3026C21.9886 20.3026 21.6378 20.2131 21.3537 20.0341C21.0696 19.858 20.8537 19.6236 20.706 19.331C20.5582 19.0355 20.4844 18.7131 20.4844 18.3636ZM21.7244 17.9034V18.3636C21.7244 18.5653 21.7727 18.7557 21.8693 18.9347C21.9688 19.1136 22.1477 19.2031 22.4062 19.2031C22.6648 19.2031 22.8409 19.1151 22.9347 18.9389C23.0313 18.7628 23.0795 18.571 23.0795 18.3636V17.9034C23.0795 17.696 23.0341 17.5028 22.9432 17.3239C22.8523 17.1449 22.6733 17.0554 22.4062 17.0554C22.1506 17.0554 21.973 17.1449 21.8736 17.3239C21.7741 17.5028 21.7244 17.696 21.7244 17.9034ZM16.0057 13.3693V12.9091C16.0057 12.5568 16.081 12.2344 16.2315 11.9418C16.3821 11.6463 16.5994 11.4105 16.8835 11.2344C17.1705 11.0582 17.517 10.9702 17.9233 10.9702C18.3438 10.9702 18.696 11.0582 18.9801 11.2344C19.2642 11.4105 19.4801 11.6463 19.6278 11.9418C19.7756 12.2344 19.8494 12.5568 19.8494 12.9091V13.3693C19.8494 13.7216 19.7741 14.044 19.6236 14.3366C19.4759 14.6293 19.2585 14.8636 18.9716 15.0398C18.6875 15.2131 18.3381 15.2997 17.9233 15.2997C17.5085 15.2997 17.1577 15.2116 16.8707 15.0355C16.5866 14.8565 16.3707 14.6222 16.223 14.3324C16.0781 14.0398 16.0057 13.7187 16.0057 13.3693ZM17.2543 12.9091V13.3693C17.2543 13.5767 17.3026 13.7685 17.3991 13.9446C17.4986 14.1207 17.6733 14.2088 17.9233 14.2088C18.1847 14.2088 18.3622 14.1207 18.456 13.9446C18.5526 13.7685 18.6009 13.5767 18.6009 13.3693V12.9091C18.6009 12.7017 18.5554 12.5085 18.4645 12.3295C18.3736 12.1506 18.1932 12.0611 17.9233 12.0611C17.6705 12.0611 17.4957 12.152 17.3991 12.3338C17.3026 12.5156 17.2543 12.7074 17.2543 12.9091ZM16.5682 20L22.5682 11.2727H23.6847L17.6847 20H16.5682Z" fill="black"/>
</svg>
