<svg width="32" height="32" viewBox="0 0 32 32" fill="none" xmlns="http://www.w3.org/2000/svg">
<rect x="5.5" y="7.5" width="21" height="12" rx="0.5" stroke="black"/>
<path d="M7.528 10.464V9.972H10.924V10.464L9.82 10.596C9.812 11.1 9.804 11.612 9.796 12.132C9.796 12.652 9.796 13.172 9.796 13.692V14.28C9.796 14.792 9.796 15.308 9.796 15.828C9.804 16.34 9.812 16.856 9.82 17.376L10.924 17.508V18H7.528V17.508L8.632 17.376C8.648 16.872 8.656 16.36 8.656 15.84C8.656 15.32 8.656 14.8 8.656 14.28V13.692C8.656 13.172 8.656 12.656 8.656 12.144C8.656 11.624 8.648 11.108 8.632 10.596L7.528 10.464Z" fill="black"/>
<path d="M11.992 28.12C11.704 28.12 11.464 28.036 11.272 27.868C11.08 27.7 10.96 27.476 10.912 27.196C10.584 27.516 10.296 27.756 10.048 27.916C9.8 28.076 9.5 28.156 9.148 28.156C8.708 28.156 8.328 28.032 8.008 27.784C7.696 27.528 7.54 27.152 7.54 26.656C7.54 26.424 7.592 26.208 7.696 26.008C7.808 25.808 8.008 25.612 8.296 25.42C8.584 25.228 8.996 25.036 9.532 24.844C9.716 24.78 9.928 24.712 10.168 24.64C10.408 24.568 10.648 24.504 10.888 24.448V24.148C10.888 23.564 10.8 23.176 10.624 22.984C10.448 22.792 10.16 22.696 9.76 22.696C9.672 22.696 9.572 22.7 9.46 22.708C9.356 22.716 9.24 22.736 9.112 22.768L8.884 23.548C8.772 23.932 8.564 24.124 8.26 24.124C7.924 24.124 7.736 23.96 7.696 23.632C7.808 23.176 8.072 22.816 8.488 22.552C8.912 22.28 9.428 22.144 10.036 22.144C10.668 22.144 11.136 22.304 11.44 22.624C11.744 22.936 11.896 23.472 11.896 24.232V26.788C11.896 27.044 11.936 27.228 12.016 27.34C12.096 27.444 12.2 27.496 12.328 27.496C12.432 27.496 12.52 27.472 12.592 27.424C12.664 27.376 12.732 27.312 12.796 27.232L13.036 27.496C12.892 27.728 12.732 27.892 12.556 27.988C12.388 28.076 12.2 28.12 11.992 28.12ZM8.608 26.476C8.608 26.796 8.7 27.024 8.884 27.16C9.068 27.296 9.296 27.364 9.568 27.364C9.688 27.364 9.8 27.348 9.904 27.316C10.016 27.284 10.148 27.224 10.3 27.136C10.452 27.04 10.648 26.904 10.888 26.728V24.892C10.68 24.948 10.476 25.012 10.276 25.084C10.076 25.148 9.912 25.204 9.784 25.252C9.44 25.388 9.184 25.528 9.016 25.672C8.848 25.816 8.736 25.956 8.68 26.092C8.632 26.228 8.608 26.356 8.608 26.476ZM13.5269 28V27.568L14.4149 27.4C14.4229 27.096 14.4269 26.768 14.4269 26.416C14.4349 26.064 14.4389 25.752 14.4389 25.48V24.904C14.4389 24.576 14.4349 24.304 14.4269 24.088C14.4269 23.872 14.4189 23.644 14.4029 23.404L13.4549 23.296V22.876L15.1349 22.144L15.3149 22.264L15.4109 23.236C15.6909 22.916 16.0189 22.656 16.3949 22.456C16.7709 22.248 17.1429 22.144 17.5109 22.144C17.8869 22.144 18.1909 22.232 18.4229 22.408C18.6629 22.584 18.8349 22.872 18.9389 23.272C19.2429 22.896 19.5829 22.616 19.9589 22.432C20.3349 22.24 20.7189 22.144 21.1109 22.144C21.5989 22.144 21.9749 22.308 22.2389 22.636C22.5109 22.964 22.6469 23.5 22.6469 24.244V25.48C22.6469 25.752 22.6469 26.064 22.6469 26.416C22.6549 26.768 22.6629 27.096 22.6709 27.4L23.5109 27.568V28H20.7269V27.568L21.6149 27.4C21.6229 27.104 21.6269 26.78 21.6269 26.428C21.6349 26.068 21.6389 25.752 21.6389 25.48V24.436C21.6389 23.876 21.5589 23.5 21.3989 23.308C21.2389 23.108 20.9829 23.008 20.6309 23.008C20.3829 23.008 20.1269 23.064 19.8629 23.176C19.6069 23.288 19.3269 23.484 19.0229 23.764C19.0309 23.852 19.0349 23.948 19.0349 24.052C19.0429 24.148 19.0469 24.252 19.0469 24.364V25.48C19.0469 25.752 19.0469 26.064 19.0469 26.416C19.0549 26.768 19.0629 27.096 19.0709 27.4L19.9109 27.568V28H17.1269V27.568L18.0149 27.4C18.0229 27.104 18.0269 26.78 18.0269 26.428C18.0349 26.068 18.0389 25.752 18.0389 25.48V24.46C18.0389 23.916 17.9629 23.54 17.8109 23.332C17.6589 23.116 17.4069 23.008 17.0549 23.008C16.7829 23.008 16.5229 23.064 16.2749 23.176C16.0269 23.288 15.7549 23.472 15.4589 23.728V25.48C15.4589 25.744 15.4589 26.056 15.4589 26.416C15.4669 26.768 15.4749 27.096 15.4829 27.4L16.3109 27.568V28H13.5269Z" fill="black" fill-opacity="0.3"/>
</svg>
