<svg width="32" height="32" viewBox="0 0 32 32" fill="none" xmlns="http://www.w3.org/2000/svg">
<rect x="5.5" y="9.5" width="21" height="12" rx="0.5" stroke="black"/>
<path d="M7.528 12.464V11.972H10.924V12.464L9.82 12.596C9.812 13.1 9.804 13.612 9.796 14.132C9.796 14.652 9.796 15.172 9.796 15.692V16.28C9.796 16.792 9.796 17.308 9.796 17.828C9.804 18.34 9.812 18.856 9.82 19.376L10.924 19.508V20H7.528V19.508L8.632 19.376C8.648 18.872 8.656 18.36 8.656 17.84C8.656 17.32 8.656 16.8 8.656 16.28V15.692C8.656 15.172 8.656 14.656 8.656 14.144C8.656 13.624 8.648 13.108 8.632 12.596L7.528 12.464Z" fill="black"/>
<path d="M18.992 20.12C18.704 20.12 18.464 20.036 18.272 19.868C18.08 19.7 17.96 19.476 17.912 19.196C17.584 19.516 17.296 19.756 17.048 19.916C16.8 20.076 16.5 20.156 16.148 20.156C15.708 20.156 15.328 20.032 15.008 19.784C14.696 19.528 14.54 19.152 14.54 18.656C14.54 18.424 14.592 18.208 14.696 18.008C14.808 17.808 15.008 17.612 15.296 17.42C15.584 17.228 15.996 17.036 16.532 16.844C16.716 16.78 16.928 16.712 17.168 16.64C17.408 16.568 17.648 16.504 17.888 16.448V16.148C17.888 15.564 17.8 15.176 17.624 14.984C17.448 14.792 17.16 14.696 16.76 14.696C16.672 14.696 16.572 14.7 16.46 14.708C16.356 14.716 16.24 14.736 16.112 14.768L15.884 15.548C15.772 15.932 15.564 16.124 15.26 16.124C14.924 16.124 14.736 15.96 14.696 15.632C14.808 15.176 15.072 14.816 15.488 14.552C15.912 14.28 16.428 14.144 17.036 14.144C17.668 14.144 18.136 14.304 18.44 14.624C18.744 14.936 18.896 15.472 18.896 16.232V18.788C18.896 19.044 18.936 19.228 19.016 19.34C19.096 19.444 19.2 19.496 19.328 19.496C19.432 19.496 19.52 19.472 19.592 19.424C19.664 19.376 19.732 19.312 19.796 19.232L20.036 19.496C19.892 19.728 19.732 19.892 19.556 19.988C19.388 20.076 19.2 20.12 18.992 20.12ZM15.608 18.476C15.608 18.796 15.7 19.024 15.884 19.16C16.068 19.296 16.296 19.364 16.568 19.364C16.688 19.364 16.8 19.348 16.904 19.316C17.016 19.284 17.148 19.224 17.3 19.136C17.452 19.04 17.648 18.904 17.888 18.728V16.892C17.68 16.948 17.476 17.012 17.276 17.084C17.076 17.148 16.912 17.204 16.784 17.252C16.44 17.388 16.184 17.528 16.016 17.672C15.848 17.816 15.736 17.956 15.68 18.092C15.632 18.228 15.608 18.356 15.608 18.476ZM20.5269 20V19.568L21.4149 19.4C21.4229 19.096 21.4269 18.768 21.4269 18.416C21.4349 18.064 21.4389 17.752 21.4389 17.48V16.904C21.4389 16.576 21.4349 16.304 21.4269 16.088C21.4269 15.872 21.4189 15.644 21.4029 15.404L20.4549 15.296V14.876L22.1349 14.144L22.3149 14.264L22.4109 15.236C22.6909 14.916 23.0189 14.656 23.3949 14.456C23.7709 14.248 24.1429 14.144 24.5109 14.144C24.8869 14.144 25.1909 14.232 25.4229 14.408C25.6629 14.584 25.8349 14.872 25.9389 15.272C26.2429 14.896 26.5829 14.616 26.9589 14.432C27.3349 14.24 27.7189 14.144 28.1109 14.144C28.5989 14.144 28.9749 14.308 29.2389 14.636C29.5109 14.964 29.6469 15.5 29.6469 16.244V17.48C29.6469 17.752 29.6469 18.064 29.6469 18.416C29.6549 18.768 29.6629 19.096 29.6709 19.4L30.5109 19.568V20H27.7269V19.568L28.6149 19.4C28.6229 19.104 28.6269 18.78 28.6269 18.428C28.6349 18.068 28.6389 17.752 28.6389 17.48V16.436C28.6389 15.876 28.5589 15.5 28.3989 15.308C28.2389 15.108 27.9829 15.008 27.6309 15.008C27.3829 15.008 27.1269 15.064 26.8629 15.176C26.6069 15.288 26.3269 15.484 26.0229 15.764C26.0309 15.852 26.0349 15.948 26.0349 16.052C26.0429 16.148 26.0469 16.252 26.0469 16.364V17.48C26.0469 17.752 26.0469 18.064 26.0469 18.416C26.0549 18.768 26.0629 19.096 26.0709 19.4L26.9109 19.568V20H24.1269V19.568L25.0149 19.4C25.0229 19.104 25.0269 18.78 25.0269 18.428C25.0349 18.068 25.0389 17.752 25.0389 17.48V16.46C25.0389 15.916 24.9629 15.54 24.8109 15.332C24.6589 15.116 24.4069 15.008 24.0549 15.008C23.7829 15.008 23.5229 15.064 23.2749 15.176C23.0269 15.288 22.7549 15.472 22.4589 15.728V17.48C22.4589 17.744 22.4589 18.056 22.4589 18.416C22.4669 18.768 22.4749 19.096 22.4829 19.4L23.3109 19.568V20H20.5269Z" fill="black" fill-opacity="0.3"/>
</svg>
