<svg width="32" height="32" viewBox="0 0 32 32" fill="none" xmlns="http://www.w3.org/2000/svg">
<rect x="5.5" y="9.5" width="21" height="12" rx="0.5" stroke="black"/>
<path d="M10.708 13.256L9.496 16.832H11.908L10.708 13.256ZM7.06 20V19.508L8.068 19.352L10.624 11.912H11.38L13.936 19.4L14.836 19.508V20H11.572V19.508L12.748 19.364L12.088 17.396H9.304L8.632 19.352L9.808 19.508V20H7.06ZM16.7688 20.156C16.5288 20.156 16.3248 20.072 16.1568 19.904C15.9968 19.736 15.9168 19.536 15.9168 19.304C15.9168 19.064 15.9968 18.86 16.1568 18.692C16.3248 18.524 16.5288 18.44 16.7688 18.44C17.0088 18.44 17.2088 18.524 17.3688 18.692C17.5368 18.86 17.6208 19.064 17.6208 19.304C17.6208 19.536 17.5368 19.736 17.3688 19.904C17.2088 20.072 17.0088 20.156 16.7688 20.156ZM20.3664 20.156C20.1264 20.156 19.9224 20.072 19.7544 19.904C19.5944 19.736 19.5144 19.536 19.5144 19.304C19.5144 19.064 19.5944 18.86 19.7544 18.692C19.9224 18.524 20.1264 18.44 20.3664 18.44C20.6064 18.44 20.8064 18.524 20.9664 18.692C21.1344 18.86 21.2184 19.064 21.2184 19.304C21.2184 19.536 21.1344 19.736 20.9664 19.904C20.8064 20.072 20.6064 20.156 20.3664 20.156ZM23.9641 20.156C23.7241 20.156 23.5201 20.072 23.3521 19.904C23.1921 19.736 23.1121 19.536 23.1121 19.304C23.1121 19.064 23.1921 18.86 23.3521 18.692C23.5201 18.524 23.7241 18.44 23.9641 18.44C24.2041 18.44 24.4041 18.524 24.5641 18.692C24.7321 18.86 24.8161 19.064 24.8161 19.304C24.8161 19.536 24.7321 19.736 24.5641 19.904C24.4041 20.072 24.2041 20.156 23.9641 20.156Z" fill="black"/>
</svg>
