<svg width="32" height="32" viewBox="0 0 32 32" fill="none" xmlns="http://www.w3.org/2000/svg">
<rect x="4.5" y="4.5" width="23" height="23" rx="2.5" stroke="black" stroke-dasharray="2 2"/>
<path d="M6 20L11 22.8868V17.1132L6 20ZM26 20L21 17.1132V22.8868L26 20ZM10.5 20V20.5L21.5 20.5V20V19.5L10.5 19.5V20Z" fill="black"/>
<path d="M13 6L10.1132 11L15.8868 11L13 6ZM13 26L15.8868 21L10.1132 21L13 26ZM13 10.5L12.5 10.5L12.5 21.5L13 21.5L13.5 21.5L13.5 10.5L13 10.5Z" fill="black" fill-opacity="0.3"/>
<path d="M21.4844 14.3636V13.9034C21.4844 13.554 21.5582 13.233 21.706 12.9403C21.8565 12.6449 22.0739 12.4091 22.358 12.233C22.6449 12.054 22.9943 11.9645 23.4062 11.9645C23.8239 11.9645 24.1747 12.0526 24.4588 12.2287C24.7457 12.4048 24.9616 12.6406 25.1065 12.9361C25.2543 13.2287 25.3281 13.5511 25.3281 13.9034V14.3636C25.3281 14.7131 25.2543 15.0355 25.1065 15.331C24.9588 15.6236 24.7415 15.858 24.4545 16.0341C24.1676 16.2131 23.8182 16.3026 23.4062 16.3026C22.9886 16.3026 22.6378 16.2131 22.3537 16.0341C22.0696 15.858 21.8537 15.6236 21.706 15.331C21.5582 15.0355 21.4844 14.7131 21.4844 14.3636ZM22.7244 13.9034V14.3636C22.7244 14.5653 22.7727 14.7557 22.8693 14.9347C22.9688 15.1136 23.1477 15.2031 23.4062 15.2031C23.6648 15.2031 23.8409 15.1151 23.9347 14.9389C24.0313 14.7628 24.0795 14.571 24.0795 14.3636V13.9034C24.0795 13.696 24.0341 13.5028 23.9432 13.3239C23.8523 13.1449 23.6733 13.0554 23.4062 13.0554C23.1506 13.0554 22.973 13.1449 22.8736 13.3239C22.7741 13.5028 22.7244 13.696 22.7244 13.9034ZM17.0057 9.36932V8.90909C17.0057 8.55682 17.081 8.23437 17.2315 7.94176C17.3821 7.64631 17.5994 7.41051 17.8835 7.23438C18.1705 7.05824 18.517 6.97017 18.9233 6.97017C19.3438 6.97017 19.696 7.05824 19.9801 7.23438C20.2642 7.41051 20.4801 7.64631 20.6278 7.94176C20.7756 8.23437 20.8494 8.55682 20.8494 8.90909V9.36932C20.8494 9.72159 20.7741 10.044 20.6236 10.3366C20.4759 10.6293 20.2585 10.8636 19.9716 11.0398C19.6875 11.2131 19.3381 11.2997 18.9233 11.2997C18.5085 11.2997 18.1577 11.2116 17.8707 11.0355C17.5866 10.8565 17.3707 10.6222 17.223 10.3324C17.0781 10.0398 17.0057 9.71875 17.0057 9.36932ZM18.2543 8.90909V9.36932C18.2543 9.5767 18.3026 9.76847 18.3991 9.9446C18.4986 10.1207 18.6733 10.2088 18.9233 10.2088C19.1847 10.2088 19.3622 10.1207 19.456 9.9446C19.5526 9.76847 19.6009 9.5767 19.6009 9.36932V8.90909C19.6009 8.7017 19.5554 8.50852 19.4645 8.32955C19.3736 8.15057 19.1932 8.06108 18.9233 8.06108C18.6705 8.06108 18.4957 8.15199 18.3991 8.33381C18.3026 8.51562 18.2543 8.70739 18.2543 8.90909ZM17.5682 16L23.5682 7.27273H24.6847L18.6847 16H17.5682Z" fill="black"/>
</svg>
