<svg width="32" height="32" viewBox="0 0 32 32" fill="none" xmlns="http://www.w3.org/2000/svg">
<rect x="4.5" y="4.5" width="23" height="23" rx="2.5" stroke="black" stroke-dasharray="2 2"/>
<rect x="7.5" y="4.5" width="17" height="14" rx="2.5" fill="black" fill-opacity="0.2" stroke="black"/>
<path d="M6 23L11 25.8868V20.1132L6 23ZM26 23L21 20.1132V25.8868L26 23ZM10.5 23V23.5L21.5 23.5V23V22.5L10.5 22.5V23Z" fill="black"/>
<path d="M16.4844 14.3636V13.9034C16.4844 13.554 16.5582 13.233 16.706 12.9403C16.8565 12.6449 17.0739 12.4091 17.358 12.233C17.6449 12.054 17.9943 11.9645 18.4062 11.9645C18.8239 11.9645 19.1747 12.0526 19.4588 12.2287C19.7457 12.4048 19.9616 12.6406 20.1065 12.9361C20.2543 13.2287 20.3281 13.5511 20.3281 13.9034V14.3636C20.3281 14.7131 20.2543 15.0355 20.1065 15.331C19.9588 15.6236 19.7415 15.858 19.4545 16.0341C19.1676 16.2131 18.8182 16.3026 18.4062 16.3026C17.9886 16.3026 17.6378 16.2131 17.3537 16.0341C17.0696 15.858 16.8537 15.6236 16.706 15.331C16.5582 15.0355 16.4844 14.7131 16.4844 14.3636ZM17.7244 13.9034V14.3636C17.7244 14.5653 17.7727 14.7557 17.8693 14.9347C17.9688 15.1136 18.1477 15.2031 18.4062 15.2031C18.6648 15.2031 18.8409 15.1151 18.9347 14.9389C19.0313 14.7628 19.0795 14.571 19.0795 14.3636V13.9034C19.0795 13.696 19.0341 13.5028 18.9432 13.3239C18.8523 13.1449 18.6733 13.0554 18.4062 13.0554C18.1506 13.0554 17.973 13.1449 17.8736 13.3239C17.7741 13.5028 17.7244 13.696 17.7244 13.9034ZM12.0057 9.36932V8.90909C12.0057 8.55682 12.081 8.23437 12.2315 7.94176C12.3821 7.64631 12.5994 7.41051 12.8835 7.23438C13.1705 7.05824 13.517 6.97017 13.9233 6.97017C14.3438 6.97017 14.696 7.05824 14.9801 7.23438C15.2642 7.41051 15.4801 7.64631 15.6278 7.94176C15.7756 8.23437 15.8494 8.55682 15.8494 8.90909V9.36932C15.8494 9.72159 15.7741 10.044 15.6236 10.3366C15.4759 10.6293 15.2585 10.8636 14.9716 11.0398C14.6875 11.2131 14.3381 11.2997 13.9233 11.2997C13.5085 11.2997 13.1577 11.2116 12.8707 11.0355C12.5866 10.8565 12.3707 10.6222 12.223 10.3324C12.0781 10.0398 12.0057 9.71875 12.0057 9.36932ZM13.2543 8.90909V9.36932C13.2543 9.5767 13.3026 9.76847 13.3991 9.9446C13.4986 10.1207 13.6733 10.2088 13.9233 10.2088C14.1847 10.2088 14.3622 10.1207 14.456 9.9446C14.5526 9.76847 14.6009 9.5767 14.6009 9.36932V8.90909C14.6009 8.7017 14.5554 8.50852 14.4645 8.32955C14.3736 8.15057 14.1932 8.06108 13.9233 8.06108C13.6705 8.06108 13.4957 8.15199 13.3991 8.33381C13.3026 8.51562 13.2543 8.70739 13.2543 8.90909ZM12.5682 16L18.5682 7.27273H19.6847L13.6847 16H12.5682Z" fill="black"/>
</svg>
