<svg width="32" height="32" viewBox="0 0 32 32" fill="none" xmlns="http://www.w3.org/2000/svg">
<rect x="4.5" y="4.5" width="23" height="23" rx="2.5" stroke="black" stroke-dasharray="2 2"/>
<path d="M6 22L11 24.8868V19.1132L6 22ZM26 22L21 19.1132V24.8868L26 22ZM10.5 22V22.5L21.5 22.5V22V21.5L10.5 21.5V22Z" fill="black"/>
<path d="M16.4844 16.3636V15.9034C16.4844 15.554 16.5582 15.233 16.706 14.9403C16.8565 14.6449 17.0739 14.4091 17.358 14.233C17.6449 14.054 17.9943 13.9645 18.4062 13.9645C18.8239 13.9645 19.1747 14.0526 19.4588 14.2287C19.7457 14.4048 19.9616 14.6406 20.1065 14.9361C20.2543 15.2287 20.3281 15.5511 20.3281 15.9034V16.3636C20.3281 16.7131 20.2543 17.0355 20.1065 17.331C19.9588 17.6236 19.7415 17.858 19.4545 18.0341C19.1676 18.2131 18.8182 18.3026 18.4062 18.3026C17.9886 18.3026 17.6378 18.2131 17.3537 18.0341C17.0696 17.858 16.8537 17.6236 16.706 17.331C16.5582 17.0355 16.4844 16.7131 16.4844 16.3636ZM17.7244 15.9034V16.3636C17.7244 16.5653 17.7727 16.7557 17.8693 16.9347C17.9688 17.1136 18.1477 17.2031 18.4062 17.2031C18.6648 17.2031 18.8409 17.1151 18.9347 16.9389C19.0313 16.7628 19.0795 16.571 19.0795 16.3636V15.9034C19.0795 15.696 19.0341 15.5028 18.9432 15.3239C18.8523 15.1449 18.6733 15.0554 18.4062 15.0554C18.1506 15.0554 17.973 15.1449 17.8736 15.3239C17.7741 15.5028 17.7244 15.696 17.7244 15.9034ZM12.0057 11.3693V10.9091C12.0057 10.5568 12.081 10.2344 12.2315 9.94176C12.3821 9.64631 12.5994 9.41051 12.8835 9.23438C13.1705 9.05824 13.517 8.97017 13.9233 8.97017C14.3438 8.97017 14.696 9.05824 14.9801 9.23438C15.2642 9.41051 15.4801 9.64631 15.6278 9.94176C15.7756 10.2344 15.8494 10.5568 15.8494 10.9091V11.3693C15.8494 11.7216 15.7741 12.044 15.6236 12.3366C15.4759 12.6293 15.2585 12.8636 14.9716 13.0398C14.6875 13.2131 14.3381 13.2997 13.9233 13.2997C13.5085 13.2997 13.1577 13.2116 12.8707 13.0355C12.5866 12.8565 12.3707 12.6222 12.223 12.3324C12.0781 12.0398 12.0057 11.7187 12.0057 11.3693ZM13.2543 10.9091V11.3693C13.2543 11.5767 13.3026 11.7685 13.3991 11.9446C13.4986 12.1207 13.6733 12.2088 13.9233 12.2088C14.1847 12.2088 14.3622 12.1207 14.456 11.9446C14.5526 11.7685 14.6009 11.5767 14.6009 11.3693V10.9091C14.6009 10.7017 14.5554 10.5085 14.4645 10.3295C14.3736 10.1506 14.1932 10.0611 13.9233 10.0611C13.6705 10.0611 13.4957 10.152 13.3991 10.3338C13.3026 10.5156 13.2543 10.7074 13.2543 10.9091ZM12.5682 18L18.5682 9.27273H19.6847L13.6847 18H12.5682Z" fill="black"/>
</svg>
