<?xml version="1.0" encoding="UTF-8"?>
<svg id="Layer_2" data-name="Layer 2" xmlns="http://www.w3.org/2000/svg" viewBox="0 0 144 144">
  <g id="Layer_1-2" data-name="Layer 1">
    <g>
      <polygon points="39.19 55.14 9 72.57 39.19 90 39.19 55.14"/>
      <polygon points="104.81 90 135 72.57 104.81 55.14 104.81 90"/>
      <path d="M45,99h54v-54h-54v54ZM85.34,89.59c-1.6,1.62-3.73,2.43-6.38,2.43s-4.81-.81-6.42-2.43c-1.61-1.62-2.41-3.75-2.41-6.4s.8-4.84,2.41-6.46c1.61-1.62,3.75-2.43,6.42-2.43s4.78.81,6.38,2.43,2.4,3.77,2.4,6.46-.8,4.79-2.4,6.4ZM86.51,65.39l-26.19,17.69-3.21-4.42,26.19-17.52,3.21,4.25ZM58.67,54.41c1.61-1.62,3.75-2.43,6.42-2.43s4.78.8,6.38,2.41c1.6,1.61,2.4,3.77,2.4,6.47s-.8,4.79-2.4,6.4c-1.6,1.62-3.73,2.43-6.38,2.43s-4.81-.81-6.42-2.43c-1.61-1.62-2.41-3.75-2.41-6.4s.8-4.84,2.41-6.46Z"/>
      <path d="M78.96,80.14c-.84,0-1.51.28-2,.84-.49.56-.74,1.29-.74,2.21s.25,1.62.74,2.17,1.16.82,2,.82,1.45-.27,1.95-.82c.49-.55.74-1.27.74-2.17s-.25-1.65-.74-2.21c-.49-.56-1.14-.84-1.95-.84Z"/>
      <path d="M65.09,63.86c.8,0,1.45-.27,1.95-.82s.74-1.27.74-2.17-.25-1.65-.74-2.21c-.49-.56-1.14-.84-1.95-.84s-1.51.28-2,.84c-.49.56-.74,1.29-.74,2.21s.25,1.62.74,2.17c.49.55,1.16.82,2,.82Z"/>
      <rect x="51" y="139" width="8" height="5"/>
      <rect x="68" y="139" width="8" height="5"/>
      <rect x="34" y="139" width="8" height="5"/>
      <rect x="85" y="139" width="8" height="5"/>
      <rect x="119" y="139" width="8" height="5"/>
      <rect x="102" y="139" width="8" height="5"/>
      <rect x="17" y="139" width="8" height="5"/>
      <rect x="51" width="8" height="5"/>
      <rect x="68" width="8" height="5"/>
      <rect x="34" width="8" height="5"/>
      <rect x="85" width="8" height="5"/>
      <rect x="119" width="8" height="5"/>
      <rect x="102" width="8" height="5"/>
      <rect x="17" width="8" height="5"/>
      <rect y="51" width="5" height="8"/>
      <rect y="68" width="5" height="8"/>
      <rect y="34" width="5" height="8"/>
      <rect y="85" width="5" height="8"/>
      <rect y="119" width="5" height="8"/>
      <polygon points="5 136 0 136 0 144 8 144 8 139 5 139 5 136"/>
      <rect y="102" width="5" height="8"/>
      <rect y="17" width="5" height="8"/>
      <polygon points="0 8 5 8 5 5 8 5 8 0 0 0 0 8"/>
      <rect x="139" y="51" width="5" height="8"/>
      <rect x="139" y="68" width="5" height="8"/>
      <rect x="139" y="34" width="5" height="8"/>
      <rect x="139" y="85" width="5" height="8"/>
      <rect x="139" y="119" width="5" height="8"/>
      <polygon points="139 139 136 139 136 144 144 144 144 136 139 136 139 139"/>
      <rect x="139" y="102" width="5" height="8"/>
      <rect x="139" y="17" width="5" height="8"/>
      <polygon points="136 0 136 5 139 5 139 8 144 8 144 0 136 0"/>
    </g>
  </g>
</svg>