<svg width="32" height="32" viewBox="0 0 32 32" fill="none" xmlns="http://www.w3.org/2000/svg">
<rect x="4.5" y="4.5" width="23" height="23" rx="2.5" stroke="black"/>
<path d="M17.8729 16.7559C17.4124 16.3572 17.4124 15.6428 17.8729 15.2441L21.3453 12.2368C21.993 11.6759 23 12.136 23 12.9927L23 19.0073C23 19.864 21.993 20.3241 21.3453 19.7632L17.8729 16.7559Z" fill="black"/>
<path d="M14.1271 16.7559C14.5876 16.3572 14.5876 15.6428 14.1271 15.2441L10.6547 12.2368C10.007 11.6759 9 12.136 9 12.9927L9 19.0073C9 19.864 10.007 20.3241 10.6547 19.7632L14.1271 16.7559Z" fill="black"/>
<line x1="16" y1="7" x2="16" y2="25" stroke="black" stroke-width="2" stroke-dasharray="1 1"/>
</svg>
