<svg width="32" height="32" viewBox="0 0 32 32" fill="none" xmlns="http://www.w3.org/2000/svg">
<rect x="4.5" y="4.5" width="23" height="23" rx="2.5" stroke="black"/>
<rect x="17.5" y="9.5" width="7" height="7" rx="1.5" fill="black" fill-opacity="0.3" stroke="black"/>
<path d="M11.4844 15.3636V14.9034C11.4844 14.554 11.5582 14.233 11.706 13.9403C11.8565 13.6449 12.0739 13.4091 12.358 13.233C12.6449 13.054 12.9943 12.9645 13.4062 12.9645C13.8239 12.9645 14.1747 13.0526 14.4588 13.2287C14.7457 13.4048 14.9616 13.6406 15.1065 13.9361C15.2543 14.2287 15.3281 14.5511 15.3281 14.9034V15.3636C15.3281 15.7131 15.2543 16.0355 15.1065 16.331C14.9588 16.6236 14.7415 16.858 14.4545 17.0341C14.1676 17.2131 13.8182 17.3026 13.4062 17.3026C12.9886 17.3026 12.6378 17.2131 12.3537 17.0341C12.0696 16.858 11.8537 16.6236 11.706 16.331C11.5582 16.0355 11.4844 15.7131 11.4844 15.3636ZM12.7244 14.9034V15.3636C12.7244 15.5653 12.7727 15.7557 12.8693 15.9347C12.9688 16.1136 13.1477 16.2031 13.4062 16.2031C13.6648 16.2031 13.8409 16.1151 13.9347 15.9389C14.0313 15.7628 14.0795 15.571 14.0795 15.3636V14.9034C14.0795 14.696 14.0341 14.5028 13.9432 14.3239C13.8523 14.1449 13.6733 14.0554 13.4062 14.0554C13.1506 14.0554 12.973 14.1449 12.8736 14.3239C12.7741 14.5028 12.7244 14.696 12.7244 14.9034ZM7.00568 10.3693V9.90909C7.00568 9.55682 7.08097 9.23437 7.23153 8.94176C7.3821 8.64631 7.59943 8.41051 7.88352 8.23438C8.17045 8.05824 8.51705 7.97017 8.9233 7.97017C9.34375 7.97017 9.69602 8.05824 9.98011 8.23438C10.2642 8.41051 10.4801 8.64631 10.6278 8.94176C10.7756 9.23437 10.8494 9.55682 10.8494 9.90909V10.3693C10.8494 10.7216 10.7741 11.044 10.6236 11.3366C10.4759 11.6293 10.2585 11.8636 9.97159 12.0398C9.6875 12.2131 9.33807 12.2997 8.9233 12.2997C8.50852 12.2997 8.15767 12.2116 7.87074 12.0355C7.58665 11.8565 7.37074 11.6222 7.22301 11.3324C7.07813 11.0398 7.00568 10.7187 7.00568 10.3693ZM8.25426 9.90909V10.3693C8.25426 10.5767 8.30256 10.7685 8.39915 10.9446C8.49858 11.1207 8.6733 11.2088 8.9233 11.2088C9.18466 11.2088 9.36222 11.1207 9.45597 10.9446C9.55256 10.7685 9.60085 10.5767 9.60085 10.3693V9.90909C9.60085 9.7017 9.5554 9.50852 9.46449 9.32955C9.37358 9.15057 9.19318 9.06108 8.9233 9.06108C8.67045 9.06108 8.49574 9.15199 8.39915 9.33381C8.30256 9.51562 8.25426 9.70739 8.25426 9.90909ZM7.56818 17L13.5682 8.27273H14.6847L8.68466 17H7.56818Z" fill="black"/>
<path d="M7 22L12 24.8868V19.1132L7 22ZM25 22L20 19.1132V24.8868L25 22ZM11.5 22V22.5L20.5 22.5V22V21.5L11.5 21.5V22Z" fill="black"/>
</svg>
