<svg width="32" height="32" viewBox="0 0 32 32" fill="none" xmlns="http://www.w3.org/2000/svg">
<rect x="4.5" y="4.5" width="23" height="23" rx="2.5" stroke="black"/>
<line x1="7" y1="16" x2="25" y2="16" stroke="black" stroke-width="2" stroke-dasharray="1 1"/>
<path d="M16.7559 14.1271C16.3572 14.5876 15.6428 14.5876 15.2441 14.1271L12.2368 10.6547C11.6759 10.007 12.136 9 12.9927 9L19.0073 9C19.864 9 20.3241 10.007 19.7632 10.6547L16.7559 14.1271Z" fill="black"/>
<path d="M15.2441 17.8729C15.6428 17.4124 16.3572 17.4124 16.7559 17.8729L19.7632 21.3453C20.3241 21.993 19.864 23 19.0073 23H12.9927C12.136 23 11.6759 21.993 12.2368 21.3453L15.2441 17.8729Z" fill="black"/>
</svg>
