<svg width="32" height="32" viewBox="0 0 32 32" fill="none" xmlns="http://www.w3.org/2000/svg">
<rect x="3.5" y="3.5" width="25" height="25" rx="2.5" stroke="black"/>
<path d="M16.1222 23.3182C15.142 23.3182 14.3016 23.1832 13.6009 22.9134C12.9048 22.6482 12.3509 22.286 11.9389 21.8267C11.527 21.3674 11.2595 20.8513 11.1364 20.2784L13.9347 19.902C14.0199 20.1198 14.1548 20.3234 14.3395 20.5128C14.5241 20.7022 14.768 20.8537 15.071 20.9673C15.3788 21.0857 15.7528 21.1449 16.1932 21.1449C16.8513 21.1449 17.3935 20.9839 17.8196 20.6619C18.2505 20.3447 18.4659 19.812 18.4659 19.0639V17.0682H18.3381C18.2055 17.3712 18.0066 17.6577 17.7415 17.9276C17.4763 18.1974 17.1354 18.4176 16.7188 18.5881C16.3021 18.7585 15.8049 18.8438 15.2273 18.8438C14.4081 18.8438 13.6624 18.6544 12.9901 18.2756C12.3224 17.892 11.7898 17.3073 11.392 16.5213C10.9991 15.7306 10.8026 14.7315 10.8026 13.5241C10.8026 12.2884 11.0038 11.2562 11.4062 10.4276C11.8087 9.59896 12.3438 8.97869 13.0114 8.56676C13.6837 8.15483 14.42 7.94886 15.2202 7.94886C15.831 7.94886 16.3423 8.05303 16.7543 8.26136C17.1662 8.46496 17.4976 8.72064 17.7486 9.02841C18.0043 9.33144 18.2008 9.62973 18.3381 9.9233H18.4517V8.09091H21.456V19.1065C21.456 20.0346 21.2287 20.8111 20.7741 21.4361C20.3196 22.0611 19.6899 22.5298 18.8849 22.8423C18.0848 23.1596 17.1638 23.3182 16.1222 23.3182ZM16.1861 16.571C16.6738 16.571 17.0857 16.4503 17.4219 16.2088C17.7628 15.9626 18.0232 15.6122 18.2031 15.1577C18.3878 14.6984 18.4801 14.1491 18.4801 13.5099C18.4801 12.8707 18.3902 12.3168 18.2102 11.848C18.0303 11.3745 17.7699 11.0076 17.429 10.7472C17.0881 10.4867 16.6738 10.3565 16.1861 10.3565C15.6889 10.3565 15.2699 10.4915 14.929 10.7614C14.5881 11.0265 14.33 11.3958 14.1548 11.8693C13.9796 12.3428 13.892 12.8897 13.892 13.5099C13.892 14.1397 13.9796 14.6842 14.1548 15.1435C14.3348 15.598 14.5928 15.9508 14.929 16.2017C15.2699 16.4479 15.6889 16.571 16.1861 16.571Z" fill="black"/>
<line x1="6" y1="18.5" x2="26" y2="18.5" stroke="black" stroke-dasharray="1 1"/>
</svg>
