<svg width="32" height="32" viewBox="0 0 32 32" fill="none" xmlns="http://www.w3.org/2000/svg">
<rect x="4.5" y="4.5" width="23" height="23" rx="2.5" stroke="black"/>
<rect x="17.5" y="17.5" width="7" height="7" rx="1.5" fill="black" fill-opacity="0.3" stroke="black"/>
<path d="M10.8977 21.4545C10.1136 21.4545 9.44129 21.3466 8.88068 21.1307C8.32386 20.9186 7.88068 20.6288 7.55114 20.2614C7.22159 19.8939 7.00758 19.4811 6.90909 19.0227L9.14773 18.7216C9.21591 18.8958 9.32386 19.0587 9.47159 19.2102C9.61932 19.3617 9.81439 19.483 10.0568 19.5739C10.303 19.6686 10.6023 19.7159 10.9545 19.7159C11.4811 19.7159 11.9148 19.5871 12.2557 19.3295C12.6004 19.0758 12.7727 18.6496 12.7727 18.0511V16.4545H12.6705C12.5644 16.697 12.4053 16.9261 12.1932 17.142C11.9811 17.358 11.7083 17.5341 11.375 17.6705C11.0417 17.8068 10.6439 17.875 10.1818 17.875C9.52652 17.875 8.92992 17.7235 8.39205 17.4205C7.85795 17.1136 7.43182 16.6458 7.11364 16.017C6.79924 15.3845 6.64205 14.5852 6.64205 13.6193C6.64205 12.6307 6.80303 11.8049 7.125 11.142C7.44697 10.4792 7.875 9.98295 8.40909 9.65341C8.94697 9.32386 9.53598 9.15909 10.1761 9.15909C10.6648 9.15909 11.0739 9.24242 11.4034 9.40909C11.733 9.57197 11.9981 9.77652 12.1989 10.0227C12.4034 10.2652 12.5606 10.5038 12.6705 10.7386H12.7614V9.27273H15.1648V18.0852C15.1648 18.8277 14.983 19.4489 14.6193 19.9489C14.2557 20.4489 13.7519 20.8239 13.108 21.0739C12.4678 21.3277 11.7311 21.4545 10.8977 21.4545ZM10.9489 16.0568C11.339 16.0568 11.6686 15.9602 11.9375 15.767C12.2102 15.5701 12.4186 15.2898 12.5625 14.9261C12.7102 14.5587 12.7841 14.1193 12.7841 13.608C12.7841 13.0966 12.7121 12.6534 12.5682 12.2784C12.4242 11.8996 12.2159 11.6061 11.9432 11.3977C11.6705 11.1894 11.339 11.0852 10.9489 11.0852C10.5511 11.0852 10.2159 11.1932 9.94318 11.4091C9.67045 11.6212 9.46402 11.9167 9.32386 12.2955C9.18371 12.6742 9.11364 13.1117 9.11364 13.608C9.11364 14.1117 9.18371 14.5473 9.32386 14.9148C9.4678 15.2784 9.67424 15.5606 9.94318 15.7614C10.2159 15.9583 10.5511 16.0568 10.9489 16.0568Z" fill="black"/>
</svg>
