<svg width="32" height="32" viewBox="0 0 32 32" fill="none" xmlns="http://www.w3.org/2000/svg">
<rect x="4.5" y="4.5" width="23" height="23" rx="2.5" stroke="black"/>
<rect x="16.5" y="17.5" width="7" height="7" rx="1.5" fill="black" fill-opacity="0.3" stroke="black"/>
<path d="M20.4844 14.3636V13.9034C20.4844 13.554 20.5582 13.233 20.706 12.9403C20.8565 12.6449 21.0739 12.4091 21.358 12.233C21.6449 12.054 21.9943 11.9645 22.4062 11.9645C22.8239 11.9645 23.1747 12.0526 23.4588 12.2287C23.7457 12.4048 23.9616 12.6406 24.1065 12.9361C24.2543 13.2287 24.3281 13.5511 24.3281 13.9034V14.3636C24.3281 14.7131 24.2543 15.0355 24.1065 15.331C23.9588 15.6236 23.7415 15.858 23.4545 16.0341C23.1676 16.2131 22.8182 16.3026 22.4062 16.3026C21.9886 16.3026 21.6378 16.2131 21.3537 16.0341C21.0696 15.858 20.8537 15.6236 20.706 15.331C20.5582 15.0355 20.4844 14.7131 20.4844 14.3636ZM21.7244 13.9034V14.3636C21.7244 14.5653 21.7727 14.7557 21.8693 14.9347C21.9688 15.1136 22.1477 15.2031 22.4062 15.2031C22.6648 15.2031 22.8409 15.1151 22.9347 14.9389C23.0313 14.7628 23.0795 14.571 23.0795 14.3636V13.9034C23.0795 13.696 23.0341 13.5028 22.9432 13.3239C22.8523 13.1449 22.6733 13.0554 22.4062 13.0554C22.1506 13.0554 21.973 13.1449 21.8736 13.3239C21.7741 13.5028 21.7244 13.696 21.7244 13.9034ZM16.0057 9.36932V8.90909C16.0057 8.55682 16.081 8.23437 16.2315 7.94176C16.3821 7.64631 16.5994 7.41051 16.8835 7.23438C17.1705 7.05824 17.517 6.97017 17.9233 6.97017C18.3438 6.97017 18.696 7.05824 18.9801 7.23438C19.2642 7.41051 19.4801 7.64631 19.6278 7.94176C19.7756 8.23437 19.8494 8.55682 19.8494 8.90909V9.36932C19.8494 9.72159 19.7741 10.044 19.6236 10.3366C19.4759 10.6293 19.2585 10.8636 18.9716 11.0398C18.6875 11.2131 18.3381 11.2997 17.9233 11.2997C17.5085 11.2997 17.1577 11.2116 16.8707 11.0355C16.5866 10.8565 16.3707 10.6222 16.223 10.3324C16.0781 10.0398 16.0057 9.71875 16.0057 9.36932ZM17.2543 8.90909V9.36932C17.2543 9.5767 17.3026 9.76847 17.3991 9.9446C17.4986 10.1207 17.6733 10.2088 17.9233 10.2088C18.1847 10.2088 18.3622 10.1207 18.456 9.9446C18.5526 9.76847 18.6009 9.5767 18.6009 9.36932V8.90909C18.6009 8.7017 18.5554 8.50852 18.4645 8.32955C18.3736 8.15057 18.1932 8.06108 17.9233 8.06108C17.6705 8.06108 17.4957 8.15199 17.3991 8.33381C17.3026 8.51562 17.2543 8.70739 17.2543 8.90909ZM16.5682 16L22.5682 7.27273H23.6847L17.6847 16H16.5682Z" fill="black"/>
<path d="M10 7L7.11325 12H12.8868L10 7ZM10 25L12.8868 20H7.11325L10 25ZM10 11.5H9.5V20.5H10H10.5V11.5H10Z" fill="black"/>
</svg>
